<svg width="24" height="24" viewBox="0 0 24 24" fill="none" xmlns="http://www.w3.org/2000/svg">
<path d="M12 20.9999C16.411 20.9999 20 17.4109 20 12.9999C20 9.64987 17.928 6.77887 15 5.58887V7.81187C15.9109 8.33778 16.6676 9.09393 17.1941 10.0045C17.7207 10.915 17.9986 11.948 18 12.9999C18 16.3089 15.309 18.9999 12 18.9999C8.691 18.9999 6 16.3089 6 12.9999C6.00133 11.948 6.2792 10.915 6.80575 10.0044C7.3323 9.09383 8.08901 8.33771 9 7.81187V5.58887C6.072 6.77887 4 9.64987 4 12.9999C4 17.4109 7.589 20.9999 12 20.9999Z" fill="white"/>
<path d="M11 2H13V12H11V2Z" fill="white"/>
</svg>
