<svg width="32" height="32" viewBox="0 0 32 32" fill="none" xmlns="http://www.w3.org/2000/svg">
<rect width="32" height="32" rx="16" fill="#1BCC00"/>
<path d="M15.4194 18.6777C15.0328 18.1335 14.7264 17.6691 14.457 17.2651L13.1277 15.2651C12.7197 14.6518 11.8677 14.4811 11.2571 14.8891C10.6464 15.2984 10.4757 16.1518 10.8824 16.7638L12.2131 18.7638C13.4131 20.5691 15.7544 20.7984 17.2837 19.2651C16.667 19.3444 16.0003 19.4954 15.4194 18.6777Z" fill="#D3FFCC"/>
<path d="M21.3212 12C20.9812 12 20.6252 12.1147 20.3652 12.3747L15.4186 17.3747C15.0759 17.7187 14.7742 17.7373 14.5049 17.3333C14.5049 17.3333 15.0343 18.1212 15.4186 18.6667C15.9997 19.4914 16.6663 19.3333 17.2893 19.2506L22.2772 14.292C22.7959 13.7707 22.7959 12.896 22.2772 12.3747C22.0172 12.1147 21.6612 12 21.3212 12Z" fill="white"/>
</svg>
