<svg width="42" height="14" viewBox="0 0 42 14" fill="none" xmlns="http://www.w3.org/2000/svg">
<path fill-rule="evenodd" clip-rule="evenodd" d="M10.8874 13.7287H7.31403L4.63441 3.12619C4.50723 2.63848 4.23717 2.20731 3.83993 2.00409C2.84858 1.49341 1.75617 1.08698 0.564453 0.881996V0.4738H6.32093C7.11541 0.4738 7.71127 1.08698 7.81058 1.79911L9.20092 9.44705L12.7726 0.4738H16.2467L10.8874 13.7287ZM18.2322 13.7287H14.8574L17.6364 0.4738H21.0111L18.2322 13.7287ZM25.3789 4.14372C25.4782 3.42982 26.0741 3.02162 26.7692 3.02162C27.8616 2.91913 29.0516 3.12411 30.0447 3.63304L30.6406 0.779194C29.6475 0.370997 28.5551 0.166016 27.5637 0.166016C24.2882 0.166016 21.9048 2.00202 21.9048 4.55015C21.9048 6.48864 23.5931 7.50648 24.7848 8.11966C26.0741 8.73107 26.5706 9.13927 26.4713 9.75068C26.4713 10.6678 25.4782 11.076 24.4868 11.076C23.2951 11.076 22.1034 10.7703 21.0127 10.2596L20.4169 13.1152C21.6086 13.6241 22.8979 13.8291 24.0896 13.8291C27.7623 13.9298 30.0447 12.0956 30.0447 9.34248C30.0447 5.87546 25.3789 5.67225 25.3789 4.14372ZM41.8536 13.7287L39.1739 0.4738H36.2957C35.6998 0.4738 35.104 0.881996 34.9054 1.49341L29.9434 13.7287H33.4175L34.1109 11.792H38.3795L38.7767 13.7287H41.8536ZM36.7926 4.04209L37.784 9.03764H35.0051L36.7926 4.04209Z" fill="white"/>
</svg>
