<svg width="25" height="24" viewBox="0 0 25 24" fill="none" xmlns="http://www.w3.org/2000/svg">
<path fill-rule="evenodd" clip-rule="evenodd" d="M12.5 20C8.08172 20 4.5 16.4183 4.5 12C4.5 7.58172 8.08172 4 12.5 4C16.9183 4 20.5 7.58172 20.5 12C20.5 16.4183 16.9183 20 12.5 20ZM2.5 12C2.5 17.5228 6.97715 22 12.5 22C18.0228 22 22.5 17.5228 22.5 12C22.5 6.47715 18.0228 2 12.5 2C6.97715 2 2.5 6.47715 2.5 12Z" fill="#99FFF3"/>
<path fill-rule="evenodd" clip-rule="evenodd" d="M13.5002 16C13.5002 16.5523 13.0525 17 12.5002 17C11.948 17 11.5002 16.5523 11.5002 16V10.4141L8.50015 13.4142L7.08594 12L11.793 7.29286C11.9084 7.17755 12.0448 7.09629 12.1899 7.04908C12.2613 7.02582 12.3361 7.01037 12.4134 7.00371C12.4639 6.99935 12.5147 6.9988 12.5653 7.00208C12.6814 7.00954 12.7922 7.03683 12.8942 7.0806C12.982 7.1182 13.0655 7.16896 13.1418 7.23288C13.167 7.25396 13.1911 7.27625 13.2141 7.29967L17.9144 12L16.5002 13.4142L13.5002 10.4143V16Z" fill="#00332D"/>
</svg>
