<svg width="24" height="24" viewBox="0 0 24 24" fill="none" xmlns="http://www.w3.org/2000/svg">
<path fill-rule="evenodd" clip-rule="evenodd" d="M18.0042 9.4082C18.0014 9.43845 18 9.46908 18 9.50004V17C18 18.1046 17.1046 19 16 19H8C6.89543 19 6 18.1046 6 17V9.50004C6 9.46908 5.99859 9.43845 5.99584 9.4082L4 11.4129V17C4 19.2092 5.79086 21 8 21H16C18.2091 21 20 19.2092 20 17V11.4129L18.0042 9.4082Z" fill="#99FFF3"/>
<path fill-rule="evenodd" clip-rule="evenodd" d="M10.9409 4.44103C11.5263 3.85299 12.4737 3.85299 13.0591 4.44103L20.2913 11.7055C20.681 12.0969 21.3141 12.0983 21.7055 11.7087C22.0969 11.319 22.0983 10.6859 21.7087 10.2945L19 7.57371V4.96448C19 4.41219 18.5523 3.96448 18 3.96448C17.4477 3.96448 17 4.41219 17 4.96448V5.56478L14.4764 3.02997C13.1093 1.65668 10.8907 1.65668 9.52356 3.02997L2.29132 10.2945C1.90167 10.6859 1.90308 11.319 2.29447 11.7087C2.68586 12.0983 3.31902 12.0969 3.70868 11.7055L10.9409 4.44103Z" fill="#00332D"/>
</svg>
