<svg width="24" height="24" viewBox="0 0 24 24" fill="none" xmlns="http://www.w3.org/2000/svg">
<path d="M5.438 2.10563C4.773 1.77302 4 2.26743 4 3.01055V19.9906C4 20.3692 4.224 20.7267 4.562 20.8955L6.562 21.8944C6.844 22.0352 7.15601 22.0352 7.43801 21.8944L9 21.1143L10.562 21.8944C10.844 22.0352 11.156 22.0352 11.438 21.8944L13 21.1143L14.562 21.8944C14.844 22.0352 15.156 22.0352 15.438 21.8944L17 21.1143L18.562 21.8944C19.227 22.227 20 21.7316 20 20.9894V4.00938C20 3.63082 19.776 3.27325 19.438 3.10445L17.438 2.10563C17.156 1.96479 16.844 1.96479 16.562 2.10563L15 2.8857L13.438 2.10563C13.156 1.96479 12.844 1.96479 12.562 2.10563L11 2.8857L9.43801 2.10563C9.15601 1.96479 8.844 1.96479 8.562 2.10563C8.367 2.20251 7.529 2.62101 7 2.8857L5.438 2.10563ZM9 4.13423L10.562 4.91432C10.844 5.05516 11.156 5.05516 11.438 4.91432L13 4.13423L14.562 4.91432C14.844 5.05516 15.156 5.05516 15.438 4.91432L17 4.13423L18 4.63365V19.3663L17.438 19.0857C17.156 18.9448 16.844 18.9448 16.562 19.0857L15 19.8658L13.438 19.0857C13.156 18.9448 12.844 18.9448 12.562 19.0857L11 19.8658L9.43801 19.0857C9.15601 18.9448 8.844 18.9448 8.562 19.0857L7 19.8658L6 19.3663V4.63365L6.562 4.91432C6.844 5.05516 7.15601 5.05516 7.43801 4.91432C7.63301 4.81644 8.471 4.39792 9 4.13423Z" fill="#00332D"/>
<path d="M9 7C8.448 7 8 7.448 8 8C8 8.552 8.448 9 9 9H12C12.552 9 13 8.552 13 8C13 7.448 12.552 7 12 7H9ZM15 7C14.448 7 14 7.448 14 8C14 8.552 14.448 9 15 9C15.552 9 16 8.552 16 8C16 7.448 15.552 7 15 7ZM9 11C8.448 11 8 11.448 8 12C8 12.552 8.448 13 9 13H12C12.552 13 13 12.552 13 12C13 11.448 12.552 11 12 11H9ZM15 11C14.448 11 14 11.448 14 12C14 12.552 14.448 13 15 13C15.552 13 16 12.552 16 12C16 11.448 15.552 11 15 11ZM9 15C8.448 15 8 15.448 8 16C8 16.552 8.448 17 9 17H12C12.552 17 13 16.552 13 16C13 15.448 12.552 15 12 15H9ZM15 15C14.448 15 14 15.448 14 16C14 16.552 14.448 17 15 17C15.552 17 16 16.552 16 16C16 15.448 15.552 15 15 15Z" fill="#99FFF3"/>
</svg>
